**ABCDEFGHIJKLMNOPQRSTUVWXYZabcdefghijklmnopqrstuvwxyz**************************
**PARASOLID !"#$%&'()*+,-./:;<=>?@[\]^_`{|}~0123456789**************************
**PART1;
MC=AMD64;
MC_MODEL=Intel64 Family 6 Model 58 Stepping 9, GenuineIntel;
MC_ID=unknown;
OS=Windows_NT;
OS_RELEASE=unknown;
FRU=Parasolid Version 27.0, build 207,  1-23-2015;
APPL=SOLIDWORKS 2015-2015313;
SITE=;
USER=unknown;
FORMAT=text;
GUISE=transmit;
KEY=makeProjectedPlanarWire;
FILE=makeProjectedPlanarWire.x_t;
DATE=Thu Dec 01 16:20:07 2016;
**PART2;
SCH=SCH_2700207_26105;
USFLD_SIZE=0;
**PART3;
**END_OF_HEADER*****************************************************************
T51 : TRANSMIT FILE created by modeller version 270020723 SCH_2700207_26105_1300
6196 0 12 30 CCCCCCCCCCCCCDI5 owner1040 0 CCCCCCCCCA13 boundary_mesh1006 0 A16 i
ndex_map_offset0 0 1 dA9 index_map82 0 A17 node_id_index_map82 0 A20 schema_embe
dding_map82 0 A5 child12 0 A14 lowest_node_id0 0 1 dZ1 12208 0 0 0 0 0 0 1e3 1e-
8 0 2 0 1 0 3 1 3 4 5 6 7 8 9 0 0 0 0 0 0 0 13 255 3 155 0 1 0 10 0 0 7 10 50 25
5 4 2 0 10 0 0 0 +0 -.0381 0 0 -1 0 0 0 -1 30 255 5 102 0 8 11 0 0 +.01154635919
59762 -.0381 .0312795487826308 .938125829951339 0 -.3462945670640975 29 255 6 15
3 0 9 12 0 .03848284466358115 -.0381 .0213363638969567 19 8 CCCCCCCA5 owner12 0
 Z7 154 0 1 0 0 3 V0 16 255 8 101 0 ?13 0 14 5 0 0 1 18 255 9 151 0 15 0 16 6 ?1
 17 255 15 0 0 0 0 9 17 18 0 13 -18 16 148 0 19 9 20 12 ?1 17 19 0 21 13 22 16 2
3 14 0 24 +18 20 145 0 22 16 25 26 ?1 29 12 150 0 16 26 6 0 -.0381 .035541707792
94665 29 26 147 0 20 27 12 -.03848284466358115 -.0381 .0213363638969567 29 27 14
4 0 25 28 26 -.0481644765407506 -.0381 -3469446951953615e-33 18 25 142 0 29 20 3
0 27 ?1 29 28 141 0 30 31 27 -.03848284466358115 -.0381 -.0213363638969567 18 30
 139 0 32 25 33 28 ?1 29 31 138 0 33 34 28 3469446951953615e-33 -.0381 -.0355417
0779294665 18 33 136 0 35 30 36 31 ?1 29 34 135 0 36 37 31 .03848284466358115 -.
0381 -.0213363638969567 18 36 133 0 38 33 39 34 ?1 29 37 132 0 39 40 34 .0481644
765407506 -.0381 -3469446951953615e-33 18 39 130 0 17 36 41 37 ?1 29 40 129 0 41
 42 37 -.0508 -.0381 -693889390390723e-32 18 41 127 0 43 39 44 40 ?1 29 42 126 0
 44 45 40 -.0402542154372075 -.0381 .023240782118689 18 44 124 0 46 41 47 42 ?1
 29 45 123 0 47 48 42 -1734723475976805e-33 -.0381 .0381 18 47 121 0 49 44 50 45
 ?1 29 48 120 0 50 51 45 .0402542154372075 -.0381 .023240782118689 18 50 118 0 5
2 47 53 48 ?1 29 51 117 0 53 54 48 .0508 -.0381 3469446951953615e-33 18 53 115 0
 55 50 56 51 ?1 29 54 114 0 56 57 51 .0402542154372075 -.0381 -.023240782118689
 18 56 112 0 58 53 59 54 ?1 29 57 111 0 59 60 54 1734723475976805e-33 -.0381 -.0
381 18 59 109 0 61 56 62 57 ?1 29 60 108 0 62 0 57 -.0402542154372075 -.0381 -.0
23240782118689 18 62 106 0 63 59 0 60 ?1 17 63 0 64 61 65 62 43 66 0 67 +15 255
 64 6 0 63 10 21 17 61 0 64 58 63 59 67 68 0 69 +17 65 0 64 63 46 41 70 71 0 0 +
17 43 0 0 0 0 41 63 66 0 65 -16 66 8 0 ?63 68 0 72 0 0 1 17 67 0 0 0 0 62 61 68
 0 0 -16 68 15 0 ?61 73 66 74 0 0 1 16 73 22 0 ?58 75 68 76 0 0 1 30 74 16 0 68
 72 76 0 +-.01237746615693002 -.0381 -.033531050774514 .938125829951339 0 -.3462
945670640975 30 72 9 0 66 0 74 0 +-.04212621336781375 -.0381 -.01911527625681535
 .4132116060110715 0 -.91063503592699 30 76 23 0 73 74 77 0 +.01237746615693002
 -.0381 -.033531050774514 .938125829951339 0 .3462945670640975 30 77 30 0 75 76
 78 0 +.04212621336781375 -.0381 -.01911527625681535 .4132116060110715 0 .910635
035926991 16 75 29 0 ?55 79 73 77 0 0 1 30 78 37 0 79 77 80 0 +.0421262133678137
5 -.0381 .01911527625681535 -.4132116060110715 0 .910635035926991 16 79 36 0 ?52
 81 75 78 0 0 1 30 80 44 0 81 78 82 0 +.01237746615693002 -.0381 .03353105077451
4 -.938125829951339 0 .3462945670640975 16 81 43 0 ?49 83 79 80 0 0 1 30 82 51 0
 83 80 84 0 +-.01237746615693002 -.0381 .033531050774514 -.938125829951339 0 -.3
462945670640975 16 83 50 0 ?46 71 81 82 0 0 1 30 84 58 0 71 82 85 0 +-.042126213
36781375 -.0381 .01911527625681535 -.4132116060110715 0 -.910635035926991 16 71
 57 0 ?65 18 83 84 0 0 1 30 85 67 0 18 84 86 0 +.039940689281589 -.0381 .0181235
6840238875 .4132116060110715 0 -.910635035926991 16 18 66 0 ?17 87 71 85 0 0 1 3
0 86 72 0 87 85 88 0 +.039940689281589 -.0381 -.01812356840238875 -.413211606011
071 0 -.910635035926991 16 87 71 0 ?38 89 18 86 0 0 1 30 88 77 0 89 86 90 0 +.01
15463591959762 -.0381 -.0312795487826308 -.938125829951339 0 -.3462945670640975
 16 89 76 0 ?35 91 87 88 0 0 1 30 90 82 0 91 88 92 0 +-.0115463591959762 -.0381
 -.0312795487826308 -.938125829951339 0 .3462945670640975 16 91 81 0 ?32 93 89 9
0 0 0 1 30 92 87 0 93 90 94 0 +-.039940689281589 -.0381 -.0181235684023888 -.413
2116060110715 0 .91063503592699 16 93 86 0 ?29 95 91 92 0 0 1 30 94 92 0 95 92 1
1 0 +-.03994068928158895 -.0381 .0181235684023888 .4132116060110715 0 .910635035
92699 16 95 91 0 ?22 14 93 94 0 0 1 30 11 97 0 14 94 5 0 +-.0115463591959762 -.0
381 .0312795487826308 .938125829951339 0 .3462945670640975 16 14 96 0 ?19 8 95 1
1 0 0 1 17 22 0 21 19 29 20 96 95 0 23 +15 21 7 0 17 10 0 17 29 0 21 22 32 25 97
 93 0 96 +17 96 0 0 0 0 25 22 95 0 0 -17 23 0 0 0 0 20 19 14 0 0 -17 32 0 21 29
 35 30 98 91 0 97 +17 97 0 0 0 0 30 29 93 0 0 -17 35 0 21 32 38 33 99 89 0 98 +1
7 98 0 0 0 0 33 32 91 0 0 -17 38 0 21 35 17 36 100 87 0 99 +17 99 0 0 0 0 36 35
 89 0 0 -17 17 0 21 38 13 39 15 18 0 100 +17 100 0 0 0 0 39 38 87 0 0 -17 13 0 2
1 17 19 9 24 8 0 0 +17 24 0 0 0 0 16 13 8 0 0 -14 255 10 1 0 ?0 0 64 3 4 +0 0 0
 0 3 17 46 0 64 65 49 44 101 83 0 70 +17 49 0 64 46 52 47 102 81 0 101 +17 101 0
 0 0 0 47 46 83 0 0 -17 70 0 0 0 0 44 65 71 0 0 -17 52 0 64 49 55 50 103 79 0 10
2 +17 102 0 0 0 0 50 49 81 0 0 -17 55 0 64 52 58 53 104 75 0 103 +17 103 0 0 0 0
 53 52 79 0 0 -17 58 0 64 55 61 56 69 73 0 104 +17 104 0 0 0 0 56 55 75 0 0 -17
 69 0 0 0 0 59 58 73 0 0 -1 0 
